<?xml version="1.0" encoding="UTF-8" standalone="no"?>
<svg 
   width="241.92pt"
   height="244.08pt"
   viewBox="0 0 241.92 244.08"
   version="1.1"
   id="svg203"
   xmlns="http://www.w3.org/2000/svg"
   xmlns:svg="http://www.w3.org/2000/svg" content="%3Cmxfile%20host%3D%22app.diagrams.net%22%20modified%3D%222023-02-05T21%3A03%3A25.953Z%22%20agent%3D%225.0%20(Windows%20NT%2010.0%3B%20Win64%3B%20x64)%20AppleWebKit%2F537.36%20(KHTML%2C%20like%20Gecko)%20Chrome%2F109.0.0.0%20Safari%2F537.36%22%20etag%3D%22SA75YAFiP3KEL798zXQh%22%20version%3D%2220.8.11%22%20type%3D%22google%22%3E%3Cdiagram%20name%3D%22Page-1%22%20id%3D%223q-q5XTjzo_7eJhAS6NQ%22%3E7Vxdc6IwFP01PnYHiEF4XG27%2B7A73ZnO7D7upBCEFokTYrX76zfW8BXsFFEIRp9qbsONnHNzvDnYjsBssflG0TL8SXwcjyzD34zA7ciyTAMa%2FMc28raLwLG5C8xp5ItJReAx%2BoezK0V0Ffk4rUxkhMQsWlaDHkkS7LFKDFFK1tVpAYmrqy7RXKxoFIFHD8W4Nu1P5LNQRE2jNP07juahWNrJbniBsskikIbIJ%2BtSCNyNwIwSwnavFpsZjrfgZbjsrrv%2F4Lf5G6M4YU0ueECx9XxzP%2F37%2FPDCbn%2F8ZtR5vRFZXlG8Ejcs3ix7yxBYhxHDj0vkbcdrzvIITEO2iPnI5C9RutzhHkQbzJeaBlEcz0hM6PvlIAiw7Xk8njJKXnDpN%2F7EfeIwgql4D5gyvPnw5swcMl5rmCwwo298irgAZCiLMjNtMV4XpDkiFJbpEjEkymSeZy6Q5C8EmAcAa3UOrI%2BwE%2BwF1vYc%2FBScBtixMTBggS7AOgMDdqwJsNAeGLC2JsDKGsu1QS2wE02AlTVWObCOLsA6AwPW1QRYWWOVA5sdF84eWVlk87EyZLs%2FIqhRWfXIanNGcIaGrC6HBFln1SOryylB1tlcHZQhCzVBVtZZ9cjqcgCTdVY9sj2cwCB2%2FPE%2BZB3rCdh2NzqrHFnQQA1w4n%2FdOtx85MUoTSOvCi0lq8TfYnq7NVkDkjBhr5t2jmfmaVs5jtjPDPHmKJZQgntQymIUx4hFr9X0%2B6ATK%2FwiEV%2B4kGzofoEVmsyJhH9KVtTD4rqCggapLCClYojOMaulemczv%2FUjCG4gSleC88zHEwzMngluoI2XRjA0T7aD66l638ENXLIrwa13cD1V7zu4gVt3JRjI2%2B4Igt1%2BCc5MyyvBpTMGOBnBe1L1TXAD7%2FLiCDarRx3TzVk6mODJp6m6Jti6ElxrfUGVlVIrfHAX7X6aqmuCGzi5l0awvINLOnvsDt6TqmuCGxjKF0ewezKCIVRO8GFOVkISfBy7Kb8hVq%2BX9%2FB9FGdp%2BZpiZJxBScDPP2qbloQNlH9qK%2FC%2BDq4K8wyrYjxu2arLNVFL1HVFKDDLGlbE0GvAlh%2B3yS5J4xqQE8nWXNc1oMBP01IV5P6w9pSqbXdYS9R1RSgw4DRRhVzAj7Vh5UR9m7BQwQlfS1WQewVgn6hXqCXquiIUWAKaqIL8Ed%2Fa2q0l6tnYhQpcg4tQhda9gqwKffcKUMEXZjRVhda9Qk0V%2Bu4VhtsvnpcqyI8QWvsK8gOEvn2FrDUZYEUMvgbkr0S29RVqiU7mK%2FBh8efzu%2BnFPyEAd%2F8B%3C%2Fdiagram%3E%3C%2Fmxfile%3E">
  <defs
     id="defs29">
    <clipPath
       id="clip-0">
      <path
         clip-rule="nonzero"
         d="M 180 0 L 241.921875 0 L 241.921875 62 L 180 62 Z M 180 0 "
         id="path2" />
    </clipPath>
    <clipPath
       id="clip-1">
      <path
         clip-rule="nonzero"
         d="M 180 60 L 241.921875 60 L 241.921875 122 L 180 122 Z M 180 60 "
         id="path5" />
    </clipPath>
    <clipPath
       id="clip-2">
      <path
         clip-rule="nonzero"
         d="M 180 120 L 241.921875 120 L 241.921875 182 L 180 182 Z M 180 120 "
         id="path8" />
    </clipPath>
    <clipPath
       id="clip-3">
      <path
         clip-rule="nonzero"
         d="M 180 180 L 241.921875 180 L 241.921875 242 L 180 242 Z M 180 180 "
         id="path11" />
    </clipPath>
    <clipPath
       id="clip-4">
      <path
         clip-rule="nonzero"
         d="M 204 186 L 241.921875 186 L 241.921875 235 L 204 235 Z M 204 186 "
         id="path14" />
    </clipPath>
    <clipPath
       id="clip-5">
      <path
         clip-rule="nonzero"
         d="M 186 204 L 235 204 L 235 242 L 186 242 Z M 186 204 "
         id="path17" />
    </clipPath>
    <clipPath
       id="clip-6">
      <path
         clip-rule="nonzero"
         d="M 204 126 L 241.921875 126 L 241.921875 175 L 204 175 Z M 204 126 "
         id="path20" />
    </clipPath>
    <clipPath
       id="clip-7">
      <path
         clip-rule="nonzero"
         d="M 204 66 L 241.921875 66 L 241.921875 115 L 204 115 Z M 204 66 "
         id="path23" />
    </clipPath>
    <clipPath
       id="clip-8">
      <path
         clip-rule="nonzero"
         d="M 6 204 L 55 204 L 55 242 L 6 242 Z M 6 204 "
         id="path26" />
    </clipPath>
  </defs>
  <path
     fill-rule="nonzero"
     fill="rgb(100%, 90.19928%, 79.998779%)"
     fill-opacity="1"
     stroke-width="1"
     stroke-linecap="butt"
     stroke-linejoin="miter"
     stroke="rgb(84.309387%, 60.778809%, 0%)"
     stroke-opacity="1"
     stroke-miterlimit="4"
     d="M 1.00155 1.00155 L 81.000781 1.00155 L 81.000781 81.000781 L 1.00155 81.000781 Z M 1.00155 1.00155 "
     transform="matrix(0.749226, 0, 0, 0.749226, 0.374613, 0.374613)"
     id="path31" />
  <path
     fill-rule="nonzero"
     fill="rgb(85.488892%, 90.979004%, 98.81897%)"
     fill-opacity="1"
     stroke-width="1"
     stroke-linecap="butt"
     stroke-linejoin="miter"
     stroke="rgb(42.349243%, 55.688477%, 74.899292%)"
     stroke-opacity="1"
     stroke-miterlimit="4"
     d="M 81.000781 1.00155 L 161.000013 1.00155 L 161.000013 81.000781 L 81.000781 81.000781 Z M 81.000781 1.00155 "
     transform="matrix(0.749226, 0, 0, 0.749226, 0.374613, 0.374613)"
     id="path33" />
  <path
     fill-rule="nonzero"
     fill="rgb(85.488892%, 90.979004%, 98.81897%)"
     fill-opacity="1"
     stroke-width="1"
     stroke-linecap="butt"
     stroke-linejoin="miter"
     stroke="rgb(42.349243%, 55.688477%, 74.899292%)"
     stroke-opacity="1"
     stroke-miterlimit="4"
     d="M 161.000013 1.00155 L 240.999245 1.00155 L 240.999245 81.000781 L 161.000013 81.000781 Z M 161.000013 1.00155 "
     transform="matrix(0.749226, 0, 0, 0.749226, 0.374613, 0.374613)"
     id="path35" />
  <path
     fill-rule="nonzero"
     fill="rgb(85.488892%, 90.979004%, 98.81897%)"
     fill-opacity="1"
     d="M 180.9375 1.125 L 240.875 1.125 L 240.875 61.0625 L 180.9375 61.0625 Z M 180.9375 1.125 "
     id="path37" />
  <g
     clip-path="url(#clip-0)"
     id="g41">
    <path
       fill="none"
       stroke-width="1"
       stroke-linecap="butt"
       stroke-linejoin="miter"
       stroke="#6c8ebf"
       stroke-opacity="1"
       stroke-miterlimit="4"
       d="m 240.99924,1.00155 h 79.99924 v 79.999231 h -79.99924 z m 0,0"
       transform="matrix(0.749226,0,0,0.749226,0.374613,0.374613)"
       id="path39" />
  </g>
  <path
     fill-rule="nonzero"
     fill="rgb(85.488892%, 90.979004%, 98.81897%)"
     fill-opacity="1"
     stroke-width="1"
     stroke-linecap="butt"
     stroke-linejoin="miter"
     stroke="rgb(42.349243%, 55.688477%, 74.899292%)"
     stroke-opacity="1"
     stroke-miterlimit="4"
     d="M 1.00155 81.000781 L 81.000781 81.000781 L 81.000781 161.000013 L 1.00155 161.000013 Z M 1.00155 81.000781 "
     transform="matrix(0.749226, 0, 0, 0.749226, 0.374613, 0.374613)"
     id="path43" />
  <path
     fill-rule="nonzero"
     fill="rgb(85.488892%, 90.979004%, 98.81897%)"
     fill-opacity="1"
     stroke-width="1"
     stroke-linecap="butt"
     stroke-linejoin="miter"
     stroke="rgb(42.349243%, 55.688477%, 74.899292%)"
     stroke-opacity="1"
     stroke-miterlimit="4"
     d="M 81.000781 81.000781 L 161.000013 81.000781 L 161.000013 161.000013 L 81.000781 161.000013 Z M 81.000781 81.000781 "
     transform="matrix(0.749226, 0, 0, 0.749226, 0.374613, 0.374613)"
     id="path45" />
  <path
     fill-rule="nonzero"
     fill="rgb(85.488892%, 90.979004%, 98.81897%)"
     fill-opacity="1"
     stroke-width="1"
     stroke-linecap="butt"
     stroke-linejoin="miter"
     stroke="rgb(42.349243%, 55.688477%, 74.899292%)"
     stroke-opacity="1"
     stroke-miterlimit="4"
     d="M 161.000013 81.000781 L 240.999245 81.000781 L 240.999245 161.000013 L 161.000013 161.000013 Z M 161.000013 81.000781 "
     transform="matrix(0.749226, 0, 0, 0.749226, 0.374613, 0.374613)"
     id="path47" />
  <path
     fill-rule="nonzero"
     fill="rgb(85.488892%, 90.979004%, 98.81897%)"
     fill-opacity="1"
     d="M 180.9375 61.0625 L 240.875 61.0625 L 240.875 121 L 180.9375 121 Z M 180.9375 61.0625 "
     id="path49" />
  <g
     clip-path="url(#clip-1)"
     id="g53">
    <path
       fill="none"
       stroke-width="1"
       stroke-linecap="butt"
       stroke-linejoin="miter"
       stroke="#6c8ebf"
       stroke-opacity="1"
       stroke-miterlimit="4"
       d="m 240.99924,81.000781 h 79.99924 v 79.999229 h -79.99924 z m 0,0"
       transform="matrix(0.749226,0,0,0.749226,0.374613,0.374613)"
       id="path51" />
  </g>
  <path
     fill-rule="nonzero"
     fill="rgb(85.488892%, 90.979004%, 98.81897%)"
     fill-opacity="1"
     stroke-width="1"
     stroke-linecap="butt"
     stroke-linejoin="miter"
     stroke="rgb(42.349243%, 55.688477%, 74.899292%)"
     stroke-opacity="1"
     stroke-miterlimit="4"
     d="M 1.00155 161.000013 L 81.000781 161.000013 L 81.000781 240.999245 L 1.00155 240.999245 Z M 1.00155 161.000013 "
     transform="matrix(0.749226, 0, 0, 0.749226, 0.374613, 0.374613)"
     id="path55" />
  <path
     fill-rule="nonzero"
     fill="rgb(85.488892%, 90.979004%, 98.81897%)"
     fill-opacity="1"
     stroke-width="1"
     stroke-linecap="butt"
     stroke-linejoin="miter"
     stroke="rgb(42.349243%, 55.688477%, 74.899292%)"
     stroke-opacity="1"
     stroke-miterlimit="4"
     d="M 81.000781 161.000013 L 161.000013 161.000013 L 161.000013 240.999245 L 81.000781 240.999245 Z M 81.000781 161.000013 "
     transform="matrix(0.749226, 0, 0, 0.749226, 0.374613, 0.374613)"
     id="path57" />
  <path
     fill-rule="nonzero"
     fill="rgb(85.488892%, 90.979004%, 98.81897%)"
     fill-opacity="1"
     stroke-width="1"
     stroke-linecap="butt"
     stroke-linejoin="miter"
     stroke="rgb(42.349243%, 55.688477%, 74.899292%)"
     stroke-opacity="1"
     stroke-miterlimit="4"
     d="M 161.000013 161.000013 L 240.999245 161.000013 L 240.999245 240.999245 L 161.000013 240.999245 Z M 161.000013 161.000013 "
     transform="matrix(0.749226, 0, 0, 0.749226, 0.374613, 0.374613)"
     id="path59" />
  <path
     fill-rule="nonzero"
     fill="rgb(85.488892%, 90.979004%, 98.81897%)"
     fill-opacity="1"
     d="M 180.9375 121 L 240.875 121 L 240.875 180.9375 L 180.9375 180.9375 Z M 180.9375 121 "
     id="path61" />
  <g
     clip-path="url(#clip-2)"
     id="g65">
    <path
       fill="none"
       stroke-width="1"
       stroke-linecap="butt"
       stroke-linejoin="miter"
       stroke="#6c8ebf"
       stroke-opacity="1"
       stroke-miterlimit="4"
       d="m 240.99924,161.00001 h 79.99924 v 79.99923 h -79.99924 z m 0,0"
       transform="matrix(0.749226,0,0,0.749226,0.374613,0.374613)"
       id="path63" />
  </g>
  <path
     fill-rule="nonzero"
     fill="rgb(85.488892%, 90.979004%, 98.81897%)"
     fill-opacity="1"
     stroke-width="1"
     stroke-linecap="butt"
     stroke-linejoin="miter"
     stroke="rgb(42.349243%, 55.688477%, 74.899292%)"
     stroke-opacity="1"
     stroke-miterlimit="4"
     d="M 1.00155 240.999245 L 81.000781 240.999245 L 81.000781 320.998477 L 1.00155 320.998477 Z M 1.00155 240.999245 "
     transform="matrix(0.749226, 0, 0, 0.749226, 0.374613, 0.374613)"
     id="path67" />
  <path
     fill-rule="nonzero"
     fill="rgb(85.488892%, 90.979004%, 98.81897%)"
     fill-opacity="1"
     stroke-width="1"
     stroke-linecap="butt"
     stroke-linejoin="miter"
     stroke="rgb(42.349243%, 55.688477%, 74.899292%)"
     stroke-opacity="1"
     stroke-miterlimit="4"
     d="M 81.000781 240.999245 L 161.000013 240.999245 L 161.000013 320.998477 L 81.000781 320.998477 Z M 81.000781 240.999245 "
     transform="matrix(0.749226, 0, 0, 0.749226, 0.374613, 0.374613)"
     id="path69" />
  <path
     fill-rule="nonzero"
     fill="rgb(85.488892%, 90.979004%, 98.81897%)"
     fill-opacity="1"
     stroke-width="1"
     stroke-linecap="butt"
     stroke-linejoin="miter"
     stroke="rgb(42.349243%, 55.688477%, 74.899292%)"
     stroke-opacity="1"
     stroke-miterlimit="4"
     d="M 161.000013 240.999245 L 240.999245 240.999245 L 240.999245 320.998477 L 161.000013 320.998477 Z M 161.000013 240.999245 "
     transform="matrix(0.749226, 0, 0, 0.749226, 0.374613, 0.374613)"
     id="path71" />
  <path
     fill-rule="nonzero"
     fill="rgb(83.529663%, 90.979004%, 83.139038%)"
     fill-opacity="1"
     d="M 180.9375 180.9375 L 240.875 180.9375 L 240.875 240.875 L 180.9375 240.875 Z M 180.9375 180.9375 "
     id="path73" />
  <g
     clip-path="url(#clip-3)"
     id="g77">
    <path
       fill="none"
       stroke-width="1"
       stroke-linecap="butt"
       stroke-linejoin="miter"
       stroke="#82b366"
       stroke-opacity="1"
       stroke-miterlimit="4"
       d="m 240.99924,240.99924 h 79.99924 v 79.99924 h -79.99924 z m 0,0"
       transform="matrix(0.749226,0,0,0.749226,0.374613,0.374613)"
       id="path75" />
  </g>
  <path
     fill="none"
     stroke-width="2"
     stroke-linecap="butt"
     stroke-linejoin="miter"
     stroke="rgb(0%, 0%, 0%)"
     stroke-opacity="1"
     stroke-miterlimit="10"
     d="M 40.500132 11.000937 L 40.500132 62.757479 "
     transform="matrix(0.749226, 0, 0, 0.749226, 0, 0)"
     id="path79" />
  <path
     fill-rule="nonzero"
     fill="rgb(0%, 0%, 0%)"
     fill-opacity="1"
     stroke-width="2"
     stroke-linecap="butt"
     stroke-linejoin="miter"
     stroke="rgb(0%, 0%, 0%)"
     stroke-opacity="1"
     stroke-miterlimit="10"
     d="M 40.500132 68.758464 L 36.501214 60.760626 L 40.500132 62.757479 L 44.499051 60.760626 Z M 40.500132 68.758464 "
     transform="matrix(0.749226, 0, 0, 0.749226, 0, 0)"
     id="path81" />
  <path
     fill="none"
     stroke-width="2"
     stroke-linecap="butt"
     stroke-linejoin="miter"
     stroke="rgb(0%, 0%, 0%)"
     stroke-opacity="1"
     stroke-miterlimit="10"
     d="M 40.500132 91.000169 L 40.500132 142.761924 "
     transform="matrix(0.749226, 0, 0, 0.749226, 0, 0)"
     id="path83" />
  <path
     fill-rule="nonzero"
     fill="rgb(0%, 0%, 0%)"
     fill-opacity="1"
     stroke-width="2"
     stroke-linecap="butt"
     stroke-linejoin="miter"
     stroke="rgb(0%, 0%, 0%)"
     stroke-opacity="1"
     stroke-miterlimit="10"
     d="M 40.500132 148.757696 L 36.501214 140.759858 L 40.500132 142.761924 L 44.499051 140.759858 Z M 40.500132 148.757696 "
     transform="matrix(0.749226, 0, 0, 0.749226, 0, 0)"
     id="path85" />
  <path
     fill="none"
     stroke-width="2"
     stroke-linecap="butt"
     stroke-linejoin="miter"
     stroke="rgb(0%, 0%, 0%)"
     stroke-opacity="1"
     stroke-miterlimit="10"
     d="M 200.498596 11.000937 L 200.498596 62.757479 "
     transform="matrix(0.749226, 0, 0, 0.749226, 0, 0)"
     id="path87" />
  <path
     fill-rule="nonzero"
     fill="rgb(0%, 0%, 0%)"
     fill-opacity="1"
     stroke-width="2"
     stroke-linecap="butt"
     stroke-linejoin="miter"
     stroke="rgb(0%, 0%, 0%)"
     stroke-opacity="1"
     stroke-miterlimit="10"
     d="M 200.498596 68.758464 L 196.499677 60.760626 L 200.498596 62.757479 L 204.497515 60.760626 Z M 200.498596 68.758464 "
     transform="matrix(0.749226, 0, 0, 0.749226, 0, 0)"
     id="path89" />
  <path
     fill="none"
     stroke-width="2"
     stroke-linecap="butt"
     stroke-linejoin="miter"
     stroke="rgb(0%, 0%, 0%)"
     stroke-opacity="1"
     stroke-miterlimit="10"
     d="M 200.498596 91.000169 L 200.498596 142.761924 "
     transform="matrix(0.749226, 0, 0, 0.749226, 0, 0)"
     id="path91" />
  <path
     fill-rule="nonzero"
     fill="rgb(0%, 0%, 0%)"
     fill-opacity="1"
     stroke-width="2"
     stroke-linecap="butt"
     stroke-linejoin="miter"
     stroke="rgb(0%, 0%, 0%)"
     stroke-opacity="1"
     stroke-miterlimit="10"
     d="M 200.498596 148.757696 L 196.499677 140.759858 L 200.498596 142.761924 L 204.497515 140.759858 Z M 200.498596 148.757696 "
     transform="matrix(0.749226, 0, 0, 0.749226, 0, 0)"
     id="path93" />
  <path
     fill="none"
     stroke-width="2"
     stroke-linecap="butt"
     stroke-linejoin="miter"
     stroke="rgb(0%, 0%, 0%)"
     stroke-opacity="1"
     stroke-miterlimit="10"
     d="M 200.498596 170.999401 L 200.498596 222.761156 "
     transform="matrix(0.749226, 0, 0, 0.749226, 0, 0)"
     id="path95" />
  <path
     fill-rule="nonzero"
     fill="rgb(0%, 0%, 0%)"
     fill-opacity="1"
     stroke-width="2"
     stroke-linecap="butt"
     stroke-linejoin="miter"
     stroke="rgb(0%, 0%, 0%)"
     stroke-opacity="1"
     stroke-miterlimit="10"
     d="M 200.498596 228.762141 L 196.499677 220.75909 L 200.498596 222.761156 L 204.497515 220.75909 Z M 200.498596 228.762141 "
     transform="matrix(0.749226, 0, 0, 0.749226, 0, 0)"
     id="path97" />
  <path
     fill="none"
     stroke-width="2"
     stroke-linecap="butt"
     stroke-linejoin="miter"
     stroke="rgb(0%, 0%, 0%)"
     stroke-opacity="1"
     stroke-miterlimit="10"
     d="M 120.499364 170.999401 L 120.499364 222.761156 "
     transform="matrix(0.749226, 0, 0, 0.749226, 0, 0)"
     id="path99" />
  <path
     fill-rule="nonzero"
     fill="rgb(0%, 0%, 0%)"
     fill-opacity="1"
     stroke-width="2"
     stroke-linecap="butt"
     stroke-linejoin="miter"
     stroke="rgb(0%, 0%, 0%)"
     stroke-opacity="1"
     stroke-miterlimit="10"
     d="M 120.499364 228.762141 L 116.500445 220.75909 L 120.499364 222.761156 L 124.498283 220.75909 Z M 120.499364 228.762141 "
     transform="matrix(0.749226, 0, 0, 0.749226, 0, 0)"
     id="path101" />
  <path
     fill="none"
     stroke-width="2"
     stroke-linecap="butt"
     stroke-linejoin="miter"
     stroke="rgb(0%, 0%, 0%)"
     stroke-opacity="1"
     stroke-miterlimit="10"
     d="M 91.000169 40.500132 L 142.761924 40.500132 "
     transform="matrix(0.749226, 0, 0, 0.749226, 0, 0)"
     id="path103" />
  <path
     fill-rule="nonzero"
     fill="rgb(0%, 0%, 0%)"
     fill-opacity="1"
     stroke-width="2"
     stroke-linecap="butt"
     stroke-linejoin="miter"
     stroke="rgb(0%, 0%, 0%)"
     stroke-opacity="1"
     stroke-miterlimit="10"
     d="M 148.757696 40.500132 L 140.759858 44.499051 L 142.761924 40.500132 L 140.759858 36.501214 Z M 148.757696 40.500132 "
     transform="matrix(0.749226, 0, 0, 0.749226, 0, 0)"
     id="path105" />
  <path
     fill="none"
     stroke-width="2"
     stroke-linecap="butt"
     stroke-linejoin="miter"
     stroke="rgb(0%, 0%, 0%)"
     stroke-opacity="1"
     stroke-miterlimit="10"
     d="M 11.000937 200.498596 L 62.757479 200.498596 "
     transform="matrix(0.749226, 0, 0, 0.749226, 0, 0)"
     id="path107" />
  <path
     fill-rule="nonzero"
     fill="rgb(0%, 0%, 0%)"
     fill-opacity="1"
     stroke-width="2"
     stroke-linecap="butt"
     stroke-linejoin="miter"
     stroke="rgb(0%, 0%, 0%)"
     stroke-opacity="1"
     stroke-miterlimit="10"
     d="M 68.758464 200.498596 L 60.760626 204.497515 L 62.757479 200.498596 L 60.760626 196.499677 Z M 68.758464 200.498596 "
     transform="matrix(0.749226, 0, 0, 0.749226, 0, 0)"
     id="path109" />
  <path
     fill="none"
     stroke-width="2"
     stroke-linecap="butt"
     stroke-linejoin="miter"
     stroke="rgb(0%, 0%, 0%)"
     stroke-opacity="1"
     stroke-miterlimit="10"
     d="M 91.000169 280.497828 L 142.761924 280.497828 "
     transform="matrix(0.749226, 0, 0, 0.749226, 0, 0)"
     id="path111" />
  <path
     fill-rule="nonzero"
     fill="rgb(0%, 0%, 0%)"
     fill-opacity="1"
     stroke-width="2"
     stroke-linecap="butt"
     stroke-linejoin="miter"
     stroke="rgb(0%, 0%, 0%)"
     stroke-opacity="1"
     stroke-miterlimit="10"
     d="M 148.757696 280.497828 L 140.759858 284.50196 L 142.761924 280.497828 L 140.759858 276.498909 Z M 148.757696 280.497828 "
     transform="matrix(0.749226, 0, 0, 0.749226, 0, 0)"
     id="path113" />
  <path
     fill="none"
     stroke-width="2"
     stroke-linecap="butt"
     stroke-linejoin="miter"
     stroke="rgb(0%, 0%, 0%)"
     stroke-opacity="1"
     stroke-miterlimit="10"
     d="M 170.999401 280.497828 L 222.761156 280.497828 "
     transform="matrix(0.749226, 0, 0, 0.749226, 0, 0)"
     id="path115" />
  <path
     fill-rule="nonzero"
     fill="rgb(0%, 0%, 0%)"
     fill-opacity="1"
     stroke-width="2"
     stroke-linecap="butt"
     stroke-linejoin="miter"
     stroke="rgb(0%, 0%, 0%)"
     stroke-opacity="1"
     stroke-miterlimit="10"
     d="M 228.762141 280.497828 L 220.75909 284.50196 L 222.761156 280.497828 L 220.75909 276.498909 Z M 228.762141 280.497828 "
     transform="matrix(0.749226, 0, 0, 0.749226, 0, 0)"
     id="path117" />
  <path
     fill="none"
     stroke-width="2"
     stroke-linecap="butt"
     stroke-linejoin="miter"
     stroke="rgb(0%, 0%, 0%)"
     stroke-opacity="1"
     stroke-miterlimit="10"
     d="M 259.241515 40.500132 L 310.998056 40.500132 "
     transform="matrix(0.749226, 0, 0, 0.749226, 0, 0)"
     id="path119" />
  <path
     fill-rule="nonzero"
     fill="rgb(0%, 0%, 0%)"
     fill-opacity="1"
     stroke-width="2"
     stroke-linecap="butt"
     stroke-linejoin="miter"
     stroke="rgb(0%, 0%, 0%)"
     stroke-opacity="1"
     stroke-miterlimit="10"
     d="M 253.24053 40.500132 L 261.238367 36.501214 L 259.241515 40.500132 L 261.238367 44.499051 Z M 253.24053 40.500132 "
     transform="matrix(0.749226, 0, 0, 0.749226, 0, 0)"
     id="path121" />
  <path
     fill="none"
     stroke-width="2"
     stroke-linecap="butt"
     stroke-linejoin="miter"
     stroke="rgb(0%, 0%, 0%)"
     stroke-opacity="1"
     stroke-miterlimit="10"
     d="M 259.241515 280.998344 L 302.760388 280.998344 "
     transform="matrix(0.749226, 0, 0, 0.749226, 0, 0)"
     id="path123" />
  <path
     fill-rule="nonzero"
     fill="rgb(0%, 0%, 0%)"
     fill-opacity="1"
     stroke-width="2"
     stroke-linecap="butt"
     stroke-linejoin="miter"
     stroke="rgb(0%, 0%, 0%)"
     stroke-opacity="1"
     stroke-miterlimit="10"
     d="M 253.24053 280.998344 L 261.238367 276.999425 L 259.241515 280.998344 L 261.238367 285.002477 Z M 253.24053 280.998344 "
     transform="matrix(0.749226, 0, 0, 0.749226, 0, 0)"
     id="path125" />
  <path
     fill-rule="nonzero"
     fill="rgb(0%, 0%, 0%)"
     fill-opacity="1"
     d="M 231.332031 210.53125 L 225.335938 213.53125 L 226.835938 210.53125 L 225.335938 207.535156 Z M 231.332031 210.53125 "
     id="path127" />
  <g
     clip-path="url(#clip-4)"
     id="g131">
    <path
       fill="none"
       stroke-width="2"
       stroke-linecap="butt"
       stroke-linejoin="miter"
       stroke="#000000"
       stroke-opacity="1"
       stroke-miterlimit="10"
       d="m 308.76137,280.99834 -8.00305,4.00414 2.00207,-4.00414 -2.00207,-3.99892 z m 0,0"
       transform="scale(0.749226)"
       id="path129" />
  </g>
  <path
     fill="none"
     stroke-width="2"
     stroke-linecap="butt"
     stroke-linejoin="miter"
     stroke="rgb(0%, 0%, 0%)"
     stroke-opacity="1"
     stroke-miterlimit="10"
     d="M 280.998344 259.241515 L 280.998344 302.760388 "
     transform="matrix(0.749226, 0, 0, 0.749226, 0, 0)"
     id="path133" />
  <path
     fill-rule="nonzero"
     fill="rgb(0%, 0%, 0%)"
     fill-opacity="1"
     stroke-width="2"
     stroke-linecap="butt"
     stroke-linejoin="miter"
     stroke="rgb(0%, 0%, 0%)"
     stroke-opacity="1"
     stroke-miterlimit="10"
     d="M 280.998344 253.24053 L 285.002477 261.238367 L 280.998344 259.241515 L 276.999425 261.238367 Z M 280.998344 253.24053 "
     transform="matrix(0.749226, 0, 0, 0.749226, 0, 0)"
     id="path135" />
  <path
     fill-rule="nonzero"
     fill="rgb(0%, 0%, 0%)"
     fill-opacity="1"
     d="M 210.53125 231.332031 L 207.535156 225.335938 L 210.53125 226.835938 L 213.53125 225.335938 Z M 210.53125 231.332031 "
     id="path137" />
  <g
     clip-path="url(#clip-5)"
     id="g141">
    <path
       fill="none"
       stroke-width="2"
       stroke-linecap="butt"
       stroke-linejoin="miter"
       stroke="#000000"
       stroke-opacity="1"
       stroke-miterlimit="10"
       d="m 280.99834,308.76137 -3.99892,-8.00305 3.99892,2.00207 4.00414,-2.00207 z m 0,0"
       transform="scale(0.749226)"
       id="path139" />
  </g>
  <path
     fill="none"
     stroke-width="2"
     stroke-linecap="butt"
     stroke-linejoin="miter"
     stroke="rgb(0%, 0%, 0%)"
     stroke-opacity="1"
     stroke-miterlimit="10"
     d="M 99.237837 120.999881 L 142.761924 120.999881 "
     transform="matrix(0.749226, 0, 0, 0.749226, 0, 0)"
     id="path143" />
  <path
     fill-rule="nonzero"
     fill="rgb(0%, 0%, 0%)"
     fill-opacity="1"
     stroke-width="2"
     stroke-linecap="butt"
     stroke-linejoin="miter"
     stroke="rgb(0%, 0%, 0%)"
     stroke-opacity="1"
     stroke-miterlimit="10"
     d="M 93.242066 120.999881 L 101.239904 117.000962 L 99.237837 120.999881 L 101.239904 124.9988 Z M 93.242066 120.999881 "
     transform="matrix(0.749226, 0, 0, 0.749226, 0, 0)"
     id="path145" />
  <path
     fill-rule="nonzero"
     fill="rgb(0%, 0%, 0%)"
     fill-opacity="1"
     stroke-width="2"
     stroke-linecap="butt"
     stroke-linejoin="miter"
     stroke="rgb(0%, 0%, 0%)"
     stroke-opacity="1"
     stroke-miterlimit="10"
     d="M 148.757696 120.999881 L 140.759858 124.9988 L 142.761924 120.999881 L 140.759858 117.000962 Z M 148.757696 120.999881 "
     transform="matrix(0.749226, 0, 0, 0.749226, 0, 0)"
     id="path147" />
  <path
     fill="none"
     stroke-width="2"
     stroke-linecap="butt"
     stroke-linejoin="miter"
     stroke="rgb(0%, 0%, 0%)"
     stroke-opacity="1"
     stroke-miterlimit="10"
     d="M 120.999881 99.237837 L 120.999881 142.761924 "
     transform="matrix(0.749226, 0, 0, 0.749226, 0, 0)"
     id="path149" />
  <path
     fill-rule="nonzero"
     fill="rgb(0%, 0%, 0%)"
     fill-opacity="1"
     stroke-width="2"
     stroke-linecap="butt"
     stroke-linejoin="miter"
     stroke="rgb(0%, 0%, 0%)"
     stroke-opacity="1"
     stroke-miterlimit="10"
     d="M 120.999881 93.242066 L 124.9988 101.239904 L 120.999881 99.237837 L 117.000962 101.239904 Z M 120.999881 93.242066 "
     transform="matrix(0.749226, 0, 0, 0.749226, 0, 0)"
     id="path151" />
  <path
     fill-rule="nonzero"
     fill="rgb(0%, 0%, 0%)"
     fill-opacity="1"
     stroke-width="2"
     stroke-linecap="butt"
     stroke-linejoin="miter"
     stroke="rgb(0%, 0%, 0%)"
     stroke-opacity="1"
     stroke-miterlimit="10"
     d="M 120.999881 148.757696 L 117.000962 140.759858 L 120.999881 142.761924 L 124.9988 140.759858 Z M 120.999881 148.757696 "
     transform="matrix(0.749226, 0, 0, 0.749226, 0, 0)"
     id="path153" />
  <path
     fill="none"
     stroke-width="2"
     stroke-linecap="butt"
     stroke-linejoin="miter"
     stroke="rgb(0%, 0%, 0%)"
     stroke-opacity="1"
     stroke-miterlimit="10"
     d="M 259.241515 200.999113 L 302.760388 200.999113 "
     transform="matrix(0.749226, 0, 0, 0.749226, 0, 0)"
     id="path155" />
  <path
     fill-rule="nonzero"
     fill="rgb(0%, 0%, 0%)"
     fill-opacity="1"
     stroke-width="2"
     stroke-linecap="butt"
     stroke-linejoin="miter"
     stroke="rgb(0%, 0%, 0%)"
     stroke-opacity="1"
     stroke-miterlimit="10"
     d="M 253.24053 200.999113 L 261.238367 197.000194 L 259.241515 200.999113 L 261.238367 204.998031 Z M 253.24053 200.999113 "
     transform="matrix(0.749226, 0, 0, 0.749226, 0, 0)"
     id="path157" />
  <path
     fill-rule="nonzero"
     fill="rgb(0%, 0%, 0%)"
     fill-opacity="1"
     d="M 231.332031 150.59375 L 225.335938 153.589844 L 226.835938 150.59375 L 225.335938 147.597656 Z M 231.332031 150.59375 "
     id="path159" />
  <g
     clip-path="url(#clip-6)"
     id="g163">
    <path
       fill="none"
       stroke-width="2"
       stroke-linecap="butt"
       stroke-linejoin="miter"
       stroke="#000000"
       stroke-opacity="1"
       stroke-miterlimit="10"
       d="m 308.76137,200.99911 -8.00305,3.99892 2.00207,-3.99892 -2.00207,-3.99892 z m 0,0"
       transform="scale(0.749226)"
       id="path161" />
  </g>
  <path
     fill="none"
     stroke-width="2"
     stroke-linecap="butt"
     stroke-linejoin="miter"
     stroke="rgb(0%, 0%, 0%)"
     stroke-opacity="1"
     stroke-miterlimit="10"
     d="M 280.998344 179.242283 L 280.998344 222.761156 "
     transform="matrix(0.749226, 0, 0, 0.749226, 0, 0)"
     id="path165" />
  <path
     fill-rule="nonzero"
     fill="rgb(0%, 0%, 0%)"
     fill-opacity="1"
     stroke-width="2"
     stroke-linecap="butt"
     stroke-linejoin="miter"
     stroke="rgb(0%, 0%, 0%)"
     stroke-opacity="1"
     stroke-miterlimit="10"
     d="M 280.998344 173.241298 L 285.002477 181.239135 L 280.998344 179.242283 L 276.999425 181.239135 Z M 280.998344 173.241298 "
     transform="matrix(0.749226, 0, 0, 0.749226, 0, 0)"
     id="path167" />
  <path
     fill-rule="nonzero"
     fill="rgb(0%, 0%, 0%)"
     fill-opacity="1"
     stroke-width="2"
     stroke-linecap="butt"
     stroke-linejoin="miter"
     stroke="rgb(0%, 0%, 0%)"
     stroke-opacity="1"
     stroke-miterlimit="10"
     d="M 280.998344 228.762141 L 276.999425 220.75909 L 280.998344 222.761156 L 285.002477 220.75909 Z M 280.998344 228.762141 "
     transform="matrix(0.749226, 0, 0, 0.749226, 0, 0)"
     id="path169" />
  <path
     fill="none"
     stroke-width="2"
     stroke-linecap="butt"
     stroke-linejoin="miter"
     stroke="rgb(0%, 0%, 0%)"
     stroke-opacity="1"
     stroke-miterlimit="10"
     d="M 259.241515 120.999881 L 302.760388 120.999881 "
     transform="matrix(0.749226, 0, 0, 0.749226, 0, 0)"
     id="path171" />
  <path
     fill-rule="nonzero"
     fill="rgb(0%, 0%, 0%)"
     fill-opacity="1"
     stroke-width="2"
     stroke-linecap="butt"
     stroke-linejoin="miter"
     stroke="rgb(0%, 0%, 0%)"
     stroke-opacity="1"
     stroke-miterlimit="10"
     d="M 253.24053 120.999881 L 261.238367 117.000962 L 259.241515 120.999881 L 261.238367 124.9988 Z M 253.24053 120.999881 "
     transform="matrix(0.749226, 0, 0, 0.749226, 0, 0)"
     id="path173" />
  <path
     fill-rule="nonzero"
     fill="rgb(0%, 0%, 0%)"
     fill-opacity="1"
     d="M 231.332031 90.65625 L 225.335938 93.652344 L 226.835938 90.65625 L 225.335938 87.660156 Z M 231.332031 90.65625 "
     id="path175" />
  <g
     clip-path="url(#clip-7)"
     id="g179">
    <path
       fill="none"
       stroke-width="2"
       stroke-linecap="butt"
       stroke-linejoin="miter"
       stroke="#000000"
       stroke-opacity="1"
       stroke-miterlimit="10"
       d="m 308.76137,120.99988 -8.00305,3.99892 2.00207,-3.99892 -2.00207,-3.99892 z m 0,0"
       transform="scale(0.749226)"
       id="path177" />
  </g>
  <path
     fill="none"
     stroke-width="2"
     stroke-linecap="butt"
     stroke-linejoin="miter"
     stroke="rgb(0%, 0%, 0%)"
     stroke-opacity="1"
     stroke-miterlimit="10"
     d="M 280.998344 99.237837 L 280.998344 142.761924 "
     transform="matrix(0.749226, 0, 0, 0.749226, 0, 0)"
     id="path181" />
  <path
     fill-rule="nonzero"
     fill="rgb(0%, 0%, 0%)"
     fill-opacity="1"
     stroke-width="2"
     stroke-linecap="butt"
     stroke-linejoin="miter"
     stroke="rgb(0%, 0%, 0%)"
     stroke-opacity="1"
     stroke-miterlimit="10"
     d="M 280.998344 93.242066 L 285.002477 101.239904 L 280.998344 99.237837 L 276.999425 101.239904 Z M 280.998344 93.242066 "
     transform="matrix(0.749226, 0, 0, 0.749226, 0, 0)"
     id="path183" />
  <path
     fill-rule="nonzero"
     fill="rgb(0%, 0%, 0%)"
     fill-opacity="1"
     stroke-width="2"
     stroke-linecap="butt"
     stroke-linejoin="miter"
     stroke="rgb(0%, 0%, 0%)"
     stroke-opacity="1"
     stroke-miterlimit="10"
     d="M 280.998344 148.757696 L 276.999425 140.759858 L 280.998344 142.761924 L 285.002477 140.759858 Z M 280.998344 148.757696 "
     transform="matrix(0.749226, 0, 0, 0.749226, 0, 0)"
     id="path185" />
  <path
     fill="none"
     stroke-width="2"
     stroke-linecap="butt"
     stroke-linejoin="miter"
     stroke="rgb(0%, 0%, 0%)"
     stroke-opacity="1"
     stroke-miterlimit="10"
     d="M 19.238606 280.998344 L 62.757479 280.998344 "
     transform="matrix(0.749226, 0, 0, 0.749226, 0, 0)"
     id="path187" />
  <path
     fill-rule="nonzero"
     fill="rgb(0%, 0%, 0%)"
     fill-opacity="1"
     stroke-width="2"
     stroke-linecap="butt"
     stroke-linejoin="miter"
     stroke="rgb(0%, 0%, 0%)"
     stroke-opacity="1"
     stroke-miterlimit="10"
     d="M 13.237621 280.998344 L 21.240672 276.999425 L 19.238606 280.998344 L 21.240672 285.002477 Z M 13.237621 280.998344 "
     transform="matrix(0.749226, 0, 0, 0.749226, 0, 0)"
     id="path189" />
  <path
     fill-rule="nonzero"
     fill="rgb(0%, 0%, 0%)"
     fill-opacity="1"
     stroke-width="2"
     stroke-linecap="butt"
     stroke-linejoin="miter"
     stroke="rgb(0%, 0%, 0%)"
     stroke-opacity="1"
     stroke-miterlimit="10"
     d="M 68.758464 280.998344 L 60.760626 285.002477 L 62.757479 280.998344 L 60.760626 276.999425 Z M 68.758464 280.998344 "
     transform="matrix(0.749226, 0, 0, 0.749226, 0, 0)"
     id="path191" />
  <path
     fill="none"
     stroke-width="2"
     stroke-linecap="butt"
     stroke-linejoin="miter"
     stroke="rgb(0%, 0%, 0%)"
     stroke-opacity="1"
     stroke-miterlimit="10"
     d="M 41.000649 259.241515 L 41.000649 302.760388 "
     transform="matrix(0.749226, 0, 0, 0.749226, 0, 0)"
     id="path193" />
  <path
     fill-rule="nonzero"
     fill="rgb(0%, 0%, 0%)"
     fill-opacity="1"
     stroke-width="2"
     stroke-linecap="butt"
     stroke-linejoin="miter"
     stroke="rgb(0%, 0%, 0%)"
     stroke-opacity="1"
     stroke-miterlimit="10"
     d="M 41.000649 253.24053 L 44.999568 261.238367 L 41.000649 259.241515 L 37.00173 261.238367 Z M 41.000649 253.24053 "
     transform="matrix(0.749226, 0, 0, 0.749226, 0, 0)"
     id="path195" />
  <path
     fill-rule="nonzero"
     fill="rgb(0%, 0%, 0%)"
     fill-opacity="1"
     d="M 30.71875 231.332031 L 27.722656 225.335938 L 30.71875 226.835938 L 33.714844 225.335938 Z M 30.71875 231.332031 "
     id="path197" />
  <g
     clip-path="url(#clip-8)"
     id="g201">
    <path
       fill="none"
       stroke-width="2"
       stroke-linecap="butt"
       stroke-linejoin="miter"
       stroke="#000000"
       stroke-opacity="1"
       stroke-miterlimit="10"
       d="m 41.000649,308.76137 -3.998919,-8.00305 3.998919,2.00207 3.998919,-2.00207 z m 0,0"
       transform="scale(0.749226)"
       id="path199" />
  </g>
</svg>
